<?xml version="1.0" encoding="utf-8"?>
<!-- Generator: Adobe Illustrator 25.4.1, SVG Export Plug-In . SVG Version: 6.00 Build 0)  -->
<svg version="1.1" xmlns="http://www.w3.org/2000/svg" xmlns:xlink="http://www.w3.org/1999/xlink" x="0px" y="0px"
	 viewBox="0 0 500 500" style="enable-background:new 0 0 500 500;" xml:space="preserve">
<style type="text/css">
	.st0{fill:#91CC00;}
	.st1{fill:#1A5AA8;}
	.st2{fill:#133959;}
	.st3{font-family:'Montserrat-BlackItalic';}
	.st4{font-size:47.2502px;}
	.st5{font-family:'Montserrat-Regular';}
	.st6{font-size:14.5049px;}
	.st7{letter-spacing:5;}
</style>
<g id="BACKGROUND">
</g>
<g id="OBJECTS">
	<g>
		<g>
			<g>
				<g>
					<g>
						<g>
							<path class="st0" d="M223.45,182.83c2.16-2.16,3.37-4.88,3.61-7.54c-2.78,0.24-5.49,1.41-7.61,3.54s-3.3,4.84-3.54,7.61
								C218.57,186.2,221.29,184.99,223.45,182.83z"/>
							<path class="st0" d="M231.58,190.96c2.49-2.49,5.64-3.87,8.75-4.09c-0.15-2.93-1.34-5.81-3.57-8.05
								c-2.24-2.24-5.12-3.42-8.05-3.57c-0.23,3.1-1.6,6.25-4.09,8.75s-5.64,3.87-8.75,4.09c0.15,2.93,1.34,5.81,3.57,8.05
								c2.24,2.24,5.12,3.42,8.05,3.57C227.71,196.6,229.09,193.45,231.58,190.96z"/>
						</g>
						<g>
							<path class="st0" d="M232.75,192.13c2.16-2.16,4.88-3.37,7.54-3.61c-0.24,2.78-1.41,5.49-3.54,7.61s-4.84,3.3-7.61,3.54
								C229.38,197.01,230.59,194.29,232.75,192.13z"/>
						</g>
					</g>
				</g>
				<g>
					<g>
						<g>
							<polygon class="st1" points="101.28,272.29 100.41,269.19 91.83,271.59 92.19,272.87 							"/>
							<g>
								<g>
									<g>
										
											<rect x="89.1" y="265.74" transform="matrix(0.963 -0.2696 0.2696 0.963 -68.4805 35.5536)" class="st1" width="12.22" height="2.72"/>
									</g>
									<polygon class="st1" points="101.45,266.76 100.41,269.19 91.83,271.59 89.69,270.06 									"/>
								</g>
							</g>
						</g>
						<path class="st2" d="M109.5,200.35c-3.78-10.06-10.11-14.99-16.58-17.22c6.4,4.13,13.07,11.87,14.39,24.15
							c1.77,16.33-7.46,26.78-7.46,26.78s9.63-16.08,3.47-33.76c-0.64-1.83-1.38-3.49-2.2-4.98c-5.73-10.45-18.03-15.47-29.52-12.28
							c-11.47,3.23-19.37,13.92-18.85,25.82c0.08,1.71,0.3,3.51,0.7,5.4c3.92,18.3,20.5,27.05,20.5,27.05s-13.31-4.14-20.28-19.01
							c-5.24-11.19-3.56-21.26-0.24-28.11c-4.38,5.26-7.22,12.76-5.23,23.32c5.04,26.73,33.98,30.31,41.59,47.63l4.44-1.24
							l4.44-1.24C96.2,243.89,119.07,225.81,109.5,200.35z M95.63,200.44c0.5-0.14,1.01,0.15,1.15,0.65
							c0.14,0.5-0.15,1.01-0.65,1.15s-1.01-0.15-1.15-0.65C94.85,201.09,95.14,200.58,95.63,200.44z M98.22,209.69
							c0.5-0.14,1.01,0.15,1.15,0.65c0.14,0.5-0.15,1.01-0.65,1.15s-1.01-0.15-1.15-0.65C97.44,210.34,97.73,209.83,98.22,209.69z
							 M90.77,196.81c0.5-0.14,1.01,0.15,1.15,0.65c0.14,0.5-0.15,1.01-0.65,1.15s-1.01-0.15-1.15-0.65
							C89.99,197.46,90.28,196.95,90.77,196.81z M93.36,206.06c0.5-0.14,1.01,0.15,1.15,0.65c0.14,0.5-0.15,1.01-0.65,1.15
							c-0.5,0.14-1.01-0.15-1.15-0.65C92.58,206.71,92.87,206.2,93.36,206.06z M95.95,215.31c0.5-0.14,1.01,0.15,1.15,0.65
							c0.14,0.5-0.15,1.01-0.65,1.15c-0.5,0.14-1.01-0.15-1.15-0.65C95.17,215.97,95.46,215.45,95.95,215.31z M63.2,221.43
							c-0.5,0.14-1.01-0.15-1.15-0.65c-0.14-0.5,0.15-1.01,0.65-1.15c0.5-0.14,1.01,0.15,1.15,0.65
							C63.98,220.78,63.69,221.29,63.2,221.43z M60.61,212.18c-0.5,0.14-1.01-0.15-1.15-0.65s0.15-1.01,0.65-1.15
							c0.5-0.14,1.01,0.15,1.15,0.65S61.1,212.04,60.61,212.18z M68.06,225.06c-0.5,0.14-1.01-0.15-1.15-0.65
							c-0.14-0.5,0.15-1.01,0.65-1.15s1.01,0.15,1.15,0.65C68.84,224.4,68.55,224.92,68.06,225.06z M65.47,215.8
							c-0.5,0.14-1.01-0.15-1.15-0.65c-0.14-0.5,0.15-1.01,0.65-1.15c0.5-0.14,1.01,0.15,1.15,0.65
							C66.25,215.15,65.96,215.67,65.47,215.8z M62.88,206.55c-0.5,0.14-1.01-0.15-1.15-0.65c-0.14-0.5,0.15-1.01,0.65-1.15
							c0.5-0.14,1.01,0.15,1.15,0.65C63.66,205.9,63.37,206.41,62.88,206.55z M78.78,195.18c0.5-0.14,1.01,0.15,1.15,0.65
							c0.14,0.5-0.15,1.01-0.65,1.15c-0.5,0.14-1.01-0.15-1.15-0.65C78,195.83,78.29,195.32,78.78,195.18z M81.37,204.43
							c0.5-0.14,1.01,0.15,1.15,0.65c0.14,0.5-0.15,1.01-0.65,1.15c-0.5,0.14-1.01-0.15-1.15-0.65
							C80.59,205.08,80.88,204.57,81.37,204.43z M83.96,213.68c0.5-0.14,1.01,0.15,1.15,0.65c0.14,0.5-0.15,1.01-0.65,1.15
							c-0.5,0.14-1.01-0.15-1.15-0.65C83.18,214.33,83.47,213.82,83.96,213.68z M86.55,222.93c0.5-0.14,1.01,0.15,1.15,0.65
							c0.14,0.5-0.15,1.01-0.65,1.15c-0.5,0.14-1.01-0.15-1.15-0.65C85.77,223.59,86.06,223.07,86.55,222.93z M73.99,191.54
							c0.47-0.1,0.95,0.18,1.08,0.65c0.13,0.47-0.13,0.95-0.59,1.12c-0.47,0.1-0.95-0.18-1.08-0.65
							C73.27,192.19,73.53,191.71,73.99,191.54z M76.58,200.8c0.47-0.1,0.95,0.18,1.08,0.65c0.13,0.47-0.13,0.95-0.59,1.12
							c-0.47,0.1-0.95-0.18-1.08-0.65S76.12,200.96,76.58,200.8z M79.17,210.05c0.47-0.1,0.95,0.18,1.08,0.65
							c0.13,0.47-0.13,0.95-0.59,1.12c-0.47,0.1-0.95-0.18-1.08-0.65C78.45,210.69,78.71,210.21,79.17,210.05z M81.76,219.3
							c0.47-0.1,0.95,0.18,1.08,0.65c0.13,0.47-0.13,0.95-0.59,1.12c-0.47,0.1-0.95-0.18-1.08-0.65
							C81.04,219.95,81.3,219.46,81.76,219.3z M84.35,228.55c0.47-0.1,0.95,0.18,1.08,0.65s-0.13,0.95-0.59,1.12
							c-0.47,0.1-0.95-0.18-1.08-0.65C83.63,229.2,83.89,228.72,84.35,228.55z M71.78,197.14c0.5-0.14,1.01,0.15,1.15,0.65
							c0.14,0.5-0.15,1.01-0.65,1.15c-0.5,0.14-1.01-0.15-1.15-0.65C70.99,197.79,71.28,197.28,71.78,197.14z M74.37,206.39
							c0.5-0.14,1.01,0.15,1.15,0.65c0.14,0.5-0.15,1.01-0.65,1.15c-0.5,0.14-1.01-0.15-1.15-0.65
							C73.58,207.04,73.87,206.53,74.37,206.39z M76.96,215.64c0.5-0.14,1.01,0.15,1.15,0.65c0.14,0.5-0.15,1.01-0.65,1.15
							c-0.5,0.14-1.01-0.15-1.15-0.65C76.17,216.3,76.46,215.78,76.96,215.64z M79.55,224.9c0.5-0.14,1.01,0.15,1.15,0.65
							c0.14,0.5-0.15,1.01-0.65,1.15c-0.5,0.14-1.01-0.15-1.15-0.65C78.76,225.55,79.05,225.03,79.55,224.9z M66.92,193.51
							c0.5-0.14,1.01,0.15,1.15,0.65c0.14,0.5-0.15,1.01-0.65,1.15c-0.5,0.14-1.01-0.15-1.15-0.65
							C66.13,194.16,66.42,193.65,66.92,193.51z M69.51,202.76c0.5-0.14,1.01,0.15,1.15,0.65c0.14,0.5-0.15,1.01-0.65,1.15
							c-0.5,0.14-1.01-0.15-1.15-0.65C68.72,203.42,69.01,202.9,69.51,202.76z M72.1,212.02c0.5-0.14,1.01,0.15,1.15,0.65
							c0.14,0.5-0.15,1.01-0.65,1.15c-0.5,0.14-1.01-0.15-1.15-0.65C71.31,212.67,71.6,212.15,72.1,212.02z M74.69,221.27
							c0.5-0.14,1.01,0.15,1.15,0.65c0.14,0.5-0.15,1.01-0.65,1.15c-0.5,0.14-1.01-0.15-1.15-0.65
							C73.9,221.92,74.19,221.41,74.69,221.27z M72.92,228.69c-0.5,0.14-1.01-0.15-1.15-0.65c-0.14-0.5,0.15-1.01,0.65-1.15
							c0.5-0.14,1.01,0.15,1.15,0.65C73.7,228.03,73.41,228.55,72.92,228.69z M70.33,219.43c-0.5,0.14-1.01-0.15-1.15-0.65
							c-0.14-0.5,0.15-1.01,0.65-1.15c0.5-0.14,1.01,0.15,1.15,0.65C71.11,218.78,70.82,219.29,70.33,219.43z M67.74,210.18
							c-0.5,0.14-1.01-0.15-1.15-0.65c-0.14-0.5,0.15-1.01,0.65-1.15c0.5-0.14,1.01,0.15,1.15,0.65
							C68.52,209.53,68.23,210.04,67.74,210.18z M65.15,200.93c-0.5,0.14-1.01-0.15-1.15-0.65c-0.14-0.5,0.15-1.01,0.65-1.15
							c0.5-0.14,1.01,0.15,1.15,0.65S65.64,200.79,65.15,200.93z M76.63,231.67c-0.14-0.5,0.15-1.01,0.65-1.15
							c0.5-0.14,1.01,0.15,1.15,0.65c0.14,0.5-0.15,1.01-0.65,1.15C77.28,232.45,76.77,232.16,76.63,231.67z M96.55,246.32
							c-1.26,3.52-2.21,7.52-2.79,10.29c-0.14,0.67-0.62,1.13-1.19,1.31c-0.58,0.14-1.23,0-1.7-0.5c-1.94-2.07-4.82-4.99-7.73-7.35
							c-1.11-0.9-0.73-2.67,0.64-3.06l5.31-1.49l5.31-1.49C95.79,243.66,97.03,244.98,96.55,246.32z M91.92,228.36
							c-0.5,0.14-1.01-0.15-1.15-0.65c-0.14-0.5,0.15-1.01,0.65-1.15c0.5-0.14,1.01,0.15,1.15,0.65
							C92.7,227.7,92.41,228.22,91.92,228.36z M89.33,219.1c-0.5,0.14-1.01-0.15-1.15-0.65c-0.14-0.5,0.15-1.01,0.65-1.15
							c0.5-0.14,1.01,0.15,1.15,0.65S89.82,218.96,89.33,219.1z M86.74,209.85c-0.5,0.14-1.01-0.15-1.15-0.65
							c-0.14-0.5,0.15-1.01,0.65-1.15c0.5-0.14,1.01,0.15,1.15,0.65C87.52,209.2,87.23,209.71,86.74,209.85z M84.15,200.6
							c-0.5,0.14-1.01-0.15-1.15-0.65c-0.14-0.5,0.15-1.01,0.65-1.15c0.5-0.14,1.01,0.15,1.15,0.65
							C84.93,199.95,84.64,200.46,84.15,200.6z M81.56,191.35c-0.5,0.14-1.01-0.15-1.15-0.65s0.15-1.01,0.65-1.15
							c0.5-0.14,1.01,0.15,1.15,0.65C82.34,190.69,82.05,191.21,81.56,191.35z M94.19,222.73c-0.5,0.14-1.01-0.15-1.15-0.65
							c-0.14-0.5,0.15-1.01,0.65-1.15c0.5-0.14,1.01,0.15,1.15,0.65C94.97,222.08,94.68,222.59,94.19,222.73z M91.6,213.48
							c-0.5,0.14-1.01-0.15-1.15-0.65c-0.14-0.5,0.15-1.01,0.65-1.15c0.5-0.14,1.01,0.15,1.15,0.65
							C92.38,212.83,92.09,213.34,91.6,213.48z M89.01,204.23c-0.5,0.14-1.01-0.15-1.15-0.65c-0.14-0.5,0.15-1.01,0.65-1.15
							s1.01,0.15,1.15,0.65C89.79,203.57,89.5,204.09,89.01,204.23z M86.42,194.97c-0.5,0.14-1.01-0.15-1.15-0.65
							c-0.14-0.5,0.15-1.01,0.65-1.15c0.5-0.14,1.01,0.15,1.15,0.65C87.2,194.32,86.91,194.84,86.42,194.97z"/>
					</g>
					<path class="st1" d="M99,277.46c1.26-0.26,2.49-0.34,3.65-0.3l-0.92-3.28l-9.09,0.58l1.36,4.86
						C95.49,278.51,97.2,277.84,99,277.46z"/>
				</g>
			</g>
			<path class="st0" d="M247.53,234.08c-0.72-5.82-1.81-11.55-3.17-17.2c-0.68-2.83-1.43-5.63-2.25-8.42
				c-0.41-1.4-0.84-2.79-1.29-4.18c-0.34-1.04-0.67-2.04-1.04-3.1c-0.93,0.79-1.96,1.5-3.06,2.1c14.56,44.8,6.7,59.51,6.7,59.51
				c4.3-18.64-5.74-50.26-8.59-58.61c-2.35,0.95-4.77,1.35-7.15,1.3c0.37,0.93,0.75,1.95,1.11,2.93c0.46,1.26,0.9,2.53,1.33,3.81
				c0.86,2.56,1.66,5.14,2.38,7.74c1.45,5.2,2.66,10.46,3.51,15.74c1.57,10.43,2.49,21.7-1.67,29.56c-2.04,3.86-5.37,6.57-9.8,7.96
				c-4.4,1.43-9.58,1.61-14.77,1.15c-2.6-0.23-5.23-0.62-7.86-1.14c-2.61-0.52-5.3-1.13-7.83-1.86c-5.11-1.42-10.08-3.45-14.88-5.87
				c-9.6-4.87-18.47-11.39-26.49-18.84c-8.01-7.46-15.26-15.85-21.35-24.97c-1.52-2.28-2.95-4.61-4.27-6.99
				c-1.33-2.41-2.59-4.86-3.74-7.34c-1.15-2.48-2.2-4.99-3.01-7.53c-0.4-1.27-0.73-2.54-0.96-3.79c-0.22-1.24-0.31-2.48-0.16-3.5
				c0.16-1.05,0.52-1.64,1.04-1.9c0.56-0.31,1.74-0.35,2.91-0.13c2.41,0.44,4.94,1.52,7.37,2.71c4.87,2.44,9.58,5.48,14.03,8.7
				l1.78-2.3c-4.5-3.51-9.12-6.75-14.19-9.53c-2.55-1.36-5.16-2.65-8.26-3.35c-0.78-0.16-1.6-0.28-2.49-0.28
				c-0.88,0-1.87,0.12-2.86,0.57c-1.01,0.45-1.86,1.24-2.42,2.13c-0.56,0.89-0.85,1.82-1.02,2.69c-0.31,1.75-0.2,3.34,0,4.87
				c0.21,1.52,0.54,2.98,0.93,4.4c0.79,2.84,1.81,5.55,2.92,8.19c1.11,2.65,2.33,5.23,3.61,7.78c1.3,2.58,2.71,5.08,4.21,7.52
				c6.01,9.76,13.19,18.73,21.29,26.85c8.11,8.11,17.2,15.36,27.4,21.03c5.11,2.81,10.47,5.25,16.11,7.05
				c2.82,0.93,5.58,1.66,8.45,2.34c2.85,0.68,5.75,1.23,8.72,1.6c5.92,0.72,12.19,0.88,18.57-0.89c3.17-0.89,6.35-2.32,9.14-4.44
				c2.8-2.09,5.19-4.79,6.88-7.75c1.73-2.96,2.87-6.1,3.63-9.22c0.76-3.13,1.14-6.24,1.31-9.31
				C248.59,245.78,248.25,239.92,247.53,234.08z"/>
			<g>
				<g>
					<path class="st1" d="M150.76,189.56c-1.05,2.87,3.35,0.29,3.35,0.29s5.46,4.09,2.01,12.68l-3.77,7.76l1.51-7.92
						c-5.29-0.2-18.31,0.46-21.5,11.53c-0.34,1.17-0.67,2.3-0.99,3.41c0.12,0.19,0.24,0.38,0.36,0.57c0.99,1.49,2.03,2.95,3.08,4.4
						c0.89-2.76,1.81-5.83,2.48-8.62c1.82-7.47,11.69-7.62,11.69-7.62c-6.5,2.2-7.62,4.49-10.46,11.38
						c-0.89,2.15-1.86,4.25-2.79,6.12c5.18,6.95,11.02,13.43,17.34,19.32c8.02,7.45,16.89,13.97,26.49,18.84
						c4.8,2.42,9.77,4.45,14.88,5.87c2.53,0.73,5.22,1.34,7.83,1.86c2.63,0.52,5.25,0.92,7.86,1.14c4.16,0.37,8.31,0.31,12.07-0.46
						c-0.96-2.33-1.37-6.45-1.48-10.83c0.8-4.78,1.33-10.96,0.6-17.53v0c-0.23-2.06-0.59-4.16-1.1-6.26
						c-0.35-1.46-0.9-2.92-1.58-4.37c-2.28-1.94-10.37-8.68-13.81-9.75c-4.02-1.25-13.89,3.9-13.89,3.9s7.15-5.85,12.64-6.36
						c3.04-0.28,7.89,3.28,11.6,6.51c-9.32-12.73-27.15-23.08-27.15-23.08s-7.98,4.79-15.07,6.45c6.26-3.26,13.49-7.9,14.14-8.97
						c0.65-1.07,0.45-6.75,0.88-7.33c0.43-0.57,0.39-1.28,0.39-1.47c0-0.19-0.43-0.67-0.48-0.81c-0.05-0.14,0.74-0.84,0.89-1.23
						c0.14-0.38-0.38-1.63-0.38-1.63s3.21-1.15,3.4-2.27c-2.06-3.05-2.59-9.37-2.59-9.37s2.14-1.66,2.14-5.68
						c0,0,5.28,0.1,6.99-4.69c2.14-5.97-2.3-9.39-2.3-9.39s0.48,3.83-2.01,4.41c-2.49,0.57-5.56-12.55-21.84-13.51
						c-16.28-0.96-23.37,7.18-21.93,12.64c0,0-7.76,4.31-5.08,11.21C147.89,177.59,151.82,186.69,150.76,189.56z M187.8,247.6
						c1.79-4.85,2.3-13.28,2.3-13.28c3.35,11.01-5.62,22.22-4.34,23.12c1.28,0.89,13.67,8.17,13.67,8.17
						c-9.2-2.3-16.99-6.9-16.92-8.14C182.56,256.22,186.01,252.46,187.8,247.6z M168.96,197.35c3.51,1.53,13.54,2.36,13.54,2.36
						s-7.92,0.06-12.1-0.51c-4.18-0.57-8.65-8.81-8.65-8.81S165.45,195.82,168.96,197.35z"/>
					<path class="st1" d="M222.22,270.11c4.95-1.19,7.3-4.17,9.36-7.3c-6.31,5.53-11.65,1.78-11.65,1.78l-3.08,5.07l0.82,0.82
						C219.39,270.25,220.64,270.49,222.22,270.11z"/>
					<path class="st1" d="M133.32,214.3c0,0-4.11-3.18-8.07-7.67c0.72,1.42,1.46,2.84,2.23,4.24c1.31,2.38,2.75,4.71,4.27,6.99
						c0.15,0.22,0.31,0.44,0.46,0.67C134.01,219.44,133.32,214.3,133.32,214.3z"/>
				</g>
			</g>
			<g>
				<path class="st2" d="M159.52,282.09l12.04-7.18c-7.3-4.47-14.01-9.75-20.18-15.55c-1.29,0.18-2.73,0.32-2.73,0.32
					s3.64,9.58,7.38,15.42C157.9,278.02,159.1,280.28,159.52,282.09z"/>
				<path class="st2" d="M242.72,325.51l-48.02-16.47l41,5.11l-41.51-15.58l38.44,4.07l-34.61-11.73l30.91,1.53l-7.39-4.01
					c-4.36,0.5-8.64,0.29-12.74-0.22c-2.97-0.37-5.88-0.92-8.72-1.6c-2.87-0.68-5.63-1.41-8.45-2.34
					c-5.64-1.8-11.01-4.23-16.11-7.05c-1.1-0.61-2.19-1.25-3.26-1.9l-13.69,10.81c-0.08,0.09-0.14,0.18-0.23,0.27
					c-2.49,2.3-28.54,14.75-30.36,16c-1.82,1.25-8.21-2.87-11.4-3.07c-6.13-0.38-9.99-3.77-5.91-3.45c0,0,6.29,1.04,9.35-0.63
					c3.06-1.67,15.13-11.44,18.77-16.42c3.64-4.98,9.39-22.51,9.39-22.51s0.07,0.05,0.19,0.12c-0.09-0.09-0.18-0.17-0.26-0.25
					c-7.87-7.89-14.86-16.59-20.76-26.03c-1.74,4.97-3.25,8.24-4.55,9.27c-2.43,1.92,4.85,4.73,4.85,4.73l10.15,4.73l-10.66-2.27
					c-0.37,2.1-0.8,5.41-0.8,9.42c0,0-9.87,13.03-16.19,24.52c0,0-5.46-2.68-11.4-1.44c-5.94,1.25-10.92,5.56-10.92,7.66
					c0,2.11,2.08,2.78,2.08,2.78s0,2.75,2.55,2.81c0,0-0.13,2.77,1.92,2.88c0,0-0.38,2.61,2.11,2.35l3,2.75c0,0-0.89,2.43,1.66,3
					c0,0-0.77,2.62,1.53,3.38c0,0-0.45,2.94,2.17,4.09c0,0-0.93,3.07,2.81,4.98c0,0,5.27,3.83,15.42,1.44c0,0,12.61,1.88,26.02-4.63
					c13.41-6.51,16.09-8.3,17.62-8.17l18.69-11.23l-18.64,15.96c-0.72,5.3-2.47,13.15-2.47,13.15l81.48,12.77l-52.36-18.13
					L242.72,325.51z"/>
			</g>
		</g>
		<g>
			<g>
				<g>
					<g>
						<g>
							<text transform="matrix(1 0 0 1 263.14 237.1729)" class="st0 st3 st4">PADEL</text>
							<text transform="matrix(1 0 0 1 263.14 285.0166)" class="st1 st3 st4">SEARCH</text>
							<g>
								<text transform="matrix(1 0 0 1 250.9393 308.5684)" class="st2 st5 st6 st7">ELEGÍ TU PARTIDO</text>
							</g>
						</g>
					</g>
				</g>
			</g>
		</g>
	</g>
</g>
</svg>
