<?xml version="1.0" encoding="utf-8"?>
<!-- Generator: Adobe Illustrator 25.4.1, SVG Export Plug-In . SVG Version: 6.00 Build 0)  -->
<svg version="1.1" xmlns="http://www.w3.org/2000/svg" xmlns:xlink="http://www.w3.org/1999/xlink" x="0px" y="0px"
	 viewBox="0 0 500 500" style="enable-background:new 0 0 500 500;" xml:space="preserve">
<style type="text/css">
	.st0{fill:#FFFFFF;}
	.st1{opacity:0.12;}
	.st2{clip-path:url(#SVGID_00000089537555218529946950000011796317968059917220_);}
	.st3{fill:#91CC00;}
	.st4{fill:#1A5AA8;}
	.st5{fill:#133959;}
	.st6{font-family:'Montserrat-BlackItalic';}
	.st7{font-size:47.2502px;}
	.st8{font-family:'Montserrat-Regular';}
	.st9{font-size:14.5049px;}
	.st10{letter-spacing:5;}
</style>
<g id="BACKGROUND">
	<g>
		<rect x="0" class="st0" width="500" height="500"/>
		<g class="st1">
			<defs>
				<rect id="SVGID_1_" x="0" class="st1" width="500" height="500"/>
			</defs>
			<clipPath id="SVGID_00000021093893534529310010000017600929597578889918_">
				<use xlink:href="#SVGID_1_"  style="overflow:visible;"/>
			</clipPath>
			<g style="clip-path:url(#SVGID_00000021093893534529310010000017600929597578889918_);">
				<g>
					<g>
						<g>
							<g>
								<path class="st3" d="M265.46,125.92c5.61-5.61,8.75-12.65,9.35-19.57c-7.2,0.61-14.23,3.67-19.74,9.18
									c-5.51,5.51-8.57,12.54-9.18,19.74C252.81,134.67,259.85,131.52,265.46,125.92z"/>
								<path class="st3" d="M286.56,147.02c6.46-6.46,14.64-10.03,22.68-10.62c-0.38-7.59-3.46-15.07-9.26-20.87
									c-5.8-5.8-13.28-8.88-20.87-9.26c-0.59,8.05-4.16,16.22-10.62,22.68c-6.46,6.46-14.64,10.03-22.68,10.62
									c0.38,7.59,3.46,15.07,9.26,20.87c5.8,5.8,13.28,8.88,20.87,9.26C276.52,161.65,280.09,153.48,286.56,147.02z"/>
							</g>
							<g>
								<path class="st3" d="M289.59,150.05c5.61-5.61,12.65-8.75,19.57-9.35c-0.61,7.2-3.67,14.23-9.18,19.74
									c-5.51,5.51-12.54,8.57-19.74,9.18C280.84,162.69,283.99,155.65,289.59,150.05z"/>
							</g>
						</g>
					</g>
					<g>
						<g>
							<g>
								<polygon class="st4" points="-51.38,357.94 -53.63,349.9 -75.89,356.13 -74.96,359.45 								"/>
								<g>
									<g>
										<g>
											
												<rect x="-82.99" y="340.97" transform="matrix(0.963 -0.2696 0.2696 0.963 -95.3538 -5.3476)" class="st4" width="31.69" height="7.05"/>
										</g>
										<polygon class="st4" points="-50.94,343.61 -53.63,349.9 -75.89,356.13 -81.45,352.16 										"/>
									</g>
								</g>
							</g>
							<path class="st5" d="M-30.07,171.36c-9.81-26.09-26.21-38.89-42.99-44.66c16.6,10.71,33.89,30.78,37.33,62.63
								c4.58,42.35-19.35,69.45-19.35,69.45s24.98-41.71,9.01-87.55c-1.65-4.75-3.58-9.04-5.72-12.92
								c-14.87-27.1-46.77-40.13-76.55-31.85c-29.75,8.39-50.25,36.09-48.89,66.97c0.19,4.43,0.77,9.1,1.82,14.01
								c10.15,47.47,53.16,70.15,53.16,70.15s-34.53-10.74-52.6-49.31c-13.59-29.01-9.24-55.14-0.61-72.91
								c-11.35,13.65-18.72,33.1-13.56,60.49c13.06,69.33,88.12,78.61,107.88,123.53l11.51-3.22l11.51-3.22
								C-64.57,284.3-5.24,237.4-30.07,171.36z M-66.03,171.6c1.28-0.36,2.62,0.39,2.98,1.67c0.36,1.28-0.39,2.62-1.67,2.98
								c-1.28,0.36-2.62-0.39-2.98-1.67S-67.32,171.96-66.03,171.6z M-59.31,195.59c1.28-0.36,2.62,0.39,2.98,1.67
								c0.36,1.28-0.39,2.62-1.67,2.98c-1.28,0.36-2.62-0.39-2.98-1.67C-61.35,197.28-60.6,195.95-59.31,195.59z M-78.64,162.19
								c1.28-0.36,2.62,0.39,2.98,1.67c0.36,1.28-0.39,2.62-1.67,2.98c-1.28,0.36-2.62-0.39-2.98-1.67
								C-80.67,163.88-79.92,162.55-78.64,162.19z M-71.92,186.18c1.28-0.36,2.62,0.39,2.98,1.67s-0.39,2.62-1.67,2.98
								c-1.28,0.36-2.62-0.39-2.98-1.67C-73.95,187.87-73.2,186.54-71.92,186.18z M-65.2,210.18c1.28-0.36,2.62,0.39,2.98,1.67
								c0.36,1.28-0.39,2.62-1.67,2.98s-2.62-0.39-2.98-1.67S-66.49,210.54-65.2,210.18z M-150.16,226.04
								c-1.28,0.36-2.62-0.39-2.98-1.67c-0.36-1.28,0.39-2.62,1.67-2.98s2.62,0.39,2.98,1.67
								C-148.12,224.35-148.87,225.68-150.16,226.04z M-156.87,202.04c-1.28,0.36-2.62-0.39-2.98-1.67s0.39-2.62,1.67-2.98
								s2.62,0.39,2.98,1.67S-155.59,201.68-156.87,202.04z M-137.55,235.45c-1.28,0.36-2.62-0.39-2.98-1.67s0.39-2.62,1.67-2.98
								c1.28-0.36,2.62,0.39,2.98,1.67C-135.52,233.76-136.27,235.09-137.55,235.45z M-144.27,211.45
								c-1.28,0.36-2.62-0.39-2.98-1.67c-0.36-1.28,0.39-2.62,1.67-2.98c1.28-0.36,2.62,0.39,2.98,1.67
								C-142.23,209.76-142.98,211.09-144.27,211.45z M-150.99,187.46c-1.28,0.36-2.62-0.39-2.98-1.67
								c-0.36-1.28,0.39-2.62,1.67-2.98c1.28-0.36,2.62,0.39,2.98,1.67C-148.95,185.76-149.7,187.1-150.99,187.46z M-109.73,157.95
								c1.28-0.36,2.62,0.39,2.98,1.67c0.36,1.28-0.39,2.62-1.67,2.98c-1.28,0.36-2.62-0.39-2.98-1.67
								C-111.77,159.65-111.02,158.31-109.73,157.95z M-103.02,181.95c1.28-0.36,2.62,0.39,2.98,1.67c0.36,1.28-0.39,2.62-1.67,2.98
								c-1.28,0.36-2.62-0.39-2.98-1.67C-105.05,183.64-104.3,182.31-103.02,181.95z M-96.3,205.95c1.28-0.36,2.62,0.39,2.98,1.67
								c0.36,1.28-0.39,2.62-1.67,2.98c-1.28,0.36-2.62-0.39-2.98-1.67C-98.33,207.64-97.58,206.3-96.3,205.95z M-89.58,229.94
								c1.28-0.36,2.62,0.39,2.98,1.67c0.36,1.28-0.39,2.62-1.67,2.98c-1.28,0.36-2.62-0.39-2.98-1.67
								C-91.61,231.63-90.87,230.3-89.58,229.94z M-122.17,148.53c1.23-0.25,2.46,0.46,2.81,1.69s-0.34,2.48-1.52,2.9
								c-1.23,0.25-2.47-0.46-2.81-1.69C-124.04,150.2-123.35,148.96-122.17,148.53z M-115.45,172.53c1.23-0.25,2.47,0.46,2.81,1.69
								c0.34,1.23-0.34,2.48-1.52,2.9c-1.23,0.25-2.46-0.46-2.81-1.69S-116.64,172.95-115.45,172.53z M-108.74,196.52
								c1.23-0.25,2.47,0.46,2.81,1.69s-0.34,2.48-1.52,2.9c-1.23,0.25-2.46-0.46-2.81-1.69S-109.92,196.95-108.74,196.52z
								 M-102.02,220.52c1.23-0.25,2.46,0.46,2.81,1.69c0.34,1.23-0.34,2.48-1.52,2.9c-1.23,0.25-2.47-0.46-2.81-1.69
								S-103.2,220.94-102.02,220.52z M-95.3,244.52c1.23-0.25,2.46,0.46,2.81,1.69s-0.34,2.48-1.52,2.9
								c-1.23,0.25-2.47-0.46-2.81-1.69S-96.48,244.94-95.3,244.52z M-127.91,163.04c1.28-0.36,2.62,0.39,2.98,1.67
								c0.36,1.28-0.39,2.62-1.67,2.98c-1.28,0.36-2.62-0.39-2.98-1.67C-129.94,164.73-129.19,163.4-127.91,163.04z M-121.19,187.04
								c1.28-0.36,2.62,0.39,2.98,1.67s-0.39,2.62-1.67,2.98c-1.28,0.36-2.62-0.39-2.98-1.67
								C-123.22,188.73-122.48,187.4-121.19,187.04z M-114.47,211.03c1.28-0.36,2.62,0.39,2.98,1.67c0.36,1.28-0.39,2.62-1.67,2.98
								c-1.28,0.36-2.62-0.39-2.98-1.67C-116.51,212.73-115.76,211.39-114.47,211.03z M-107.76,235.03
								c1.28-0.36,2.62,0.39,2.98,1.67c0.36,1.28-0.39,2.62-1.67,2.98c-1.28,0.36-2.62-0.39-2.98-1.67
								C-109.79,236.72-109.04,235.39-107.76,235.03z M-140.51,153.63c1.28-0.36,2.62,0.39,2.98,1.67s-0.39,2.62-1.67,2.98
								c-1.28,0.36-2.62-0.39-2.98-1.67C-142.55,155.32-141.8,153.99-140.51,153.63z M-133.8,177.63c1.28-0.36,2.62,0.39,2.98,1.67
								c0.36,1.28-0.39,2.62-1.67,2.98c-1.28,0.36-2.62-0.39-2.98-1.67C-135.83,179.32-135.08,177.99-133.8,177.63z M-127.08,201.62
								c1.28-0.36,2.62,0.39,2.98,1.67c0.36,1.28-0.39,2.62-1.67,2.98c-1.28,0.36-2.62-0.39-2.98-1.67S-128.36,201.98-127.08,201.62
								z M-120.36,225.62c1.28-0.36,2.62,0.39,2.98,1.67c0.36,1.28-0.39,2.62-1.67,2.98c-1.28,0.36-2.62-0.39-2.98-1.67
								C-122.39,227.31-121.64,225.98-120.36,225.62z M-124.95,244.86c-1.28,0.36-2.62-0.39-2.98-1.67
								c-0.36-1.28,0.39-2.62,1.67-2.98s2.62,0.39,2.98,1.67C-122.91,243.16-123.66,244.5-124.95,244.86z M-131.66,220.86
								c-1.28,0.36-2.62-0.39-2.98-1.67c-0.36-1.28,0.39-2.62,1.67-2.98s2.62,0.39,2.98,1.67
								C-129.63,219.17-130.38,220.5-131.66,220.86z M-138.38,196.87c-1.28,0.36-2.62-0.39-2.98-1.67
								c-0.36-1.28,0.39-2.62,1.67-2.98s2.62,0.39,2.98,1.67C-136.35,195.17-137.1,196.51-138.38,196.87z M-145.1,172.87
								c-1.28,0.36-2.62-0.39-2.98-1.67s0.39-2.62,1.67-2.98c1.28-0.36,2.62,0.39,2.98,1.67
								C-143.06,171.18-143.81,172.51-145.1,172.87z M-115.32,252.59c-0.36-1.28,0.39-2.62,1.67-2.98c1.28-0.36,2.62,0.39,2.98,1.67
								c0.36,1.28-0.39,2.62-1.67,2.98C-113.63,254.63-114.96,253.88-115.32,252.59z M-63.65,290.6c-3.27,9.13-5.73,19.51-7.24,26.7
								c-0.37,1.75-1.61,2.93-3.08,3.39c-1.5,0.36-3.18,0-4.4-1.3c-5.02-5.36-12.51-12.95-20.05-19.06
								c-2.87-2.33-1.89-6.93,1.67-7.93l13.78-3.86l13.78-3.86C-65.63,283.7-62.41,287.12-63.65,290.6z M-75.67,244
								c-1.28,0.36-2.62-0.39-2.98-1.67c-0.36-1.28,0.39-2.62,1.67-2.98c1.28-0.36,2.62,0.39,2.98,1.67
								C-73.64,242.31-74.39,243.64-75.67,244z M-82.39,220.01c-1.28,0.36-2.62-0.39-2.98-1.67c-0.36-1.28,0.39-2.62,1.67-2.98
								c1.28-0.36,2.62,0.39,2.98,1.67C-80.36,218.31-81.11,219.65-82.39,220.01z M-89.11,196.01c-1.28,0.36-2.62-0.39-2.98-1.67
								s0.39-2.62,1.67-2.98c1.28-0.36,2.62,0.39,2.98,1.67S-87.83,195.65-89.11,196.01z M-95.83,172.01
								c-1.28,0.36-2.62-0.39-2.98-1.67c-0.36-1.28,0.39-2.62,1.67-2.98c1.28-0.36,2.62,0.39,2.98,1.67
								C-93.79,170.32-94.54,171.65-95.83,172.01z M-102.54,148.02c-1.28,0.36-2.62-0.39-2.98-1.67s0.39-2.62,1.67-2.98
								c1.28-0.36,2.62,0.39,2.98,1.67C-100.51,146.33-101.26,147.66-102.54,148.02z M-69.79,229.42c-1.28,0.36-2.62-0.39-2.98-1.67
								c-0.36-1.28,0.39-2.62,1.67-2.98c1.28-0.36,2.62,0.39,2.98,1.67C-67.75,227.72-68.5,229.06-69.79,229.42z M-76.5,205.42
								c-1.28,0.36-2.62-0.39-2.98-1.67c-0.36-1.28,0.39-2.62,1.67-2.98c1.28-0.36,2.62,0.39,2.98,1.67
								C-74.47,203.73-75.22,205.06-76.5,205.42z M-83.22,181.42c-1.28,0.36-2.62-0.39-2.98-1.67s0.39-2.62,1.67-2.98
								c1.28-0.36,2.62,0.39,2.98,1.67C-81.19,179.73-81.94,181.06-83.22,181.42z M-89.94,157.43c-1.28,0.36-2.62-0.39-2.98-1.67
								c-0.36-1.28,0.39-2.62,1.67-2.98c1.28-0.36,2.62,0.39,2.98,1.67C-87.91,155.74-88.66,157.07-89.94,157.43z"/>
						</g>
						<path class="st4" d="M-57.3,371.36c3.26-0.68,6.45-0.87,9.46-0.78l-2.38-8.52l-23.58,1.51l3.53,12.6
							C-66.4,374.09-61.97,372.34-57.3,371.36z"/>
					</g>
				</g>
				<path class="st3" d="M327.93,258.86c-1.86-15.1-4.69-29.95-8.21-44.61c-1.75-7.33-3.7-14.6-5.83-21.84
					c-1.05-3.62-2.18-7.23-3.33-10.84c-0.89-2.71-1.74-5.28-2.71-8.03c-2.41,2.06-5.07,3.88-7.94,5.45
					c37.77,116.18,17.38,154.34,17.38,154.34c11.15-48.34-14.9-130.36-22.27-152c-6.09,2.46-12.38,3.51-18.56,3.36
					c0.95,2.4,1.95,5.06,2.88,7.59c1.18,3.27,2.34,6.56,3.45,9.88c2.22,6.63,4.29,13.34,6.17,20.08c3.77,13.49,6.9,27.14,9.1,40.83
					c4.07,27.06,6.47,56.28-4.32,76.67c-5.29,10.01-13.93,17.03-25.42,20.65c-11.42,3.7-24.86,4.19-38.31,2.99
					c-6.75-0.59-13.57-1.61-20.38-2.96c-6.76-1.34-13.74-2.92-20.31-4.83c-13.24-3.67-26.14-8.94-38.59-15.22
					c-24.91-12.64-47.91-29.55-68.7-48.87c-20.78-19.34-39.59-41.11-55.37-64.76c-3.94-5.91-7.65-11.96-11.06-18.14
					c-3.44-6.25-6.73-12.6-9.71-19.03c-2.99-6.43-5.71-12.95-7.81-19.53c-1.05-3.28-1.91-6.58-2.48-9.82
					c-0.57-3.22-0.8-6.43-0.43-9.09c0.42-2.71,1.35-4.25,2.7-4.93c1.45-0.82,4.5-0.91,7.55-0.35c6.25,1.14,12.82,3.95,19.11,7.04
					c12.62,6.32,24.84,14.2,36.4,22.55l4.61-5.97c-11.68-9.1-23.67-17.5-36.79-24.71c-6.62-3.51-13.39-6.87-21.42-8.69
					c-2.02-0.43-4.15-0.73-6.45-0.74c-2.28,0-4.84,0.32-7.42,1.48c-2.63,1.16-4.83,3.22-6.27,5.52c-1.46,2.3-2.22,4.71-2.64,6.97
					c-0.8,4.53-0.53,8.67-0.01,12.62c0.55,3.95,1.4,7.73,2.42,11.41c2.05,7.36,4.7,14.38,7.58,21.25
					c2.89,6.87,6.04,13.56,9.37,20.18c3.37,6.68,7.03,13.18,10.93,19.51c15.58,25.32,34.21,48.57,55.21,69.64
					c21.02,21.02,44.61,39.85,71.07,54.55c13.24,7.3,27.16,13.62,41.79,18.28c7.31,2.41,14.47,4.3,21.9,6.07
					c7.39,1.75,14.92,3.18,22.63,4.14c15.35,1.88,31.61,2.28,48.16-2.31c8.22-2.3,16.47-6.01,23.7-11.5
					c7.25-5.42,13.45-12.43,17.85-20.11c4.48-7.67,7.45-15.83,9.42-23.92c1.97-8.11,2.96-16.18,3.41-24.14
					C330.66,289.19,329.79,274,327.93,258.86z"/>
				<g>
					<g>
						<path class="st4" d="M76.95,143.38c-2.73,7.45,8.69,0.75,8.69,0.75s14.16,10.6,5.22,32.87l-9.77,20.12l3.92-20.55
							c-13.72-0.53-47.5,1.19-55.76,29.91c-0.88,3.04-1.73,5.97-2.57,8.85c0.32,0.49,0.61,0.98,0.94,1.47
							c2.58,3.86,5.26,7.65,7.99,11.4c2.3-7.15,4.68-15.12,6.44-22.35c4.71-19.37,30.31-19.76,30.31-19.76
							c-16.86,5.72-19.77,11.65-27.12,29.5c-2.3,5.58-4.83,11.02-7.23,15.87c13.43,18.03,28.57,34.83,44.98,50.1
							c20.79,19.32,43.79,36.23,68.7,48.87c12.46,6.27,25.35,11.54,38.59,15.22c6.57,1.9,13.54,3.49,20.31,4.83
							c6.81,1.36,13.63,2.38,20.38,2.96c10.8,0.96,21.56,0.81,31.31-1.19c-2.5-6.05-3.55-16.72-3.84-28.09
							c2.07-12.4,3.45-28.42,1.55-45.46v0c-0.6-5.34-1.52-10.78-2.84-16.25c-0.92-3.8-2.34-7.58-4.11-11.33
							c-5.91-5.03-26.89-22.51-35.81-25.27c-10.43-3.23-36.02,10.12-36.02,10.12s18.56-15.18,32.79-16.5
							c7.89-0.73,20.45,8.5,30.09,16.88c-24.16-33.03-70.42-59.86-70.42-59.86s-20.7,12.43-39.08,16.73
							c16.23-8.45,34.99-20.49,36.68-23.27c1.7-2.77,1.16-17.51,2.28-19c1.12-1.49,1.01-3.32,1.01-3.82c0-0.5-1.12-1.74-1.24-2.11
							c-0.12-0.37,1.93-2.19,2.3-3.18c0.37-0.99-0.99-4.22-0.99-4.22s8.32-2.98,8.82-5.88c-5.34-7.91-6.71-24.3-6.71-24.3
							s5.55-4.31,5.55-14.74c0,0,13.68,0.26,18.13-12.17c5.55-15.48-5.96-24.34-5.96-24.34s1.24,9.94-5.22,11.43
							c-6.46,1.49-14.41-32.54-56.64-35.03C90.37,30.1,71.98,51.22,75.71,65.38c0,0-20.12,11.18-13.17,29.06
							C69.5,112.33,79.68,135.93,76.95,143.38z M173.01,293.92c4.64-12.59,5.96-34.45,5.96-34.45
							c8.69,28.57-14.57,57.63-11.26,59.95c3.31,2.32,35.44,21.2,35.44,21.2c-23.85-5.96-44.05-17.89-43.89-21.12
							C159.43,316.28,168.37,306.51,173.01,293.92z M124.15,163.59c9.11,3.97,35.11,6.13,35.11,6.13s-20.54,0.17-31.38-1.32
							c-10.85-1.49-22.44-22.85-22.44-22.85S115.04,159.61,124.15,163.59z"/>
						<path class="st4" d="M262.28,352.28c12.85-3.09,18.92-10.81,24.28-18.94c-16.38,14.33-30.21,4.6-30.21,4.6l-7.99,13.15
							l2.13,2.13C254.93,352.64,258.17,353.27,262.28,352.28z"/>
						<path class="st4" d="M31.7,207.55c0,0-10.66-8.24-20.93-19.88c1.87,3.69,3.79,7.37,5.78,11c3.41,6.17,7.12,12.23,11.06,18.14
							c0.39,0.58,0.8,1.15,1.19,1.73C33.49,220.89,31.7,207.55,31.7,207.55z"/>
					</g>
				</g>
				<g>
					<path class="st5" d="M99.65,383.36l31.24-18.62c-18.94-11.6-36.34-25.3-52.33-40.33c-3.35,0.46-7.08,0.82-7.08,0.82
						s9.44,24.84,19.13,40C95.47,372.81,98.58,378.66,99.65,383.36z"/>
					<path class="st5" d="M315.43,495.97l-124.54-42.73l106.32,13.25l-107.65-40.41l99.7,10.54l-89.76-30.42l80.16,3.97
						l-19.16-10.41c-11.31,1.29-22.4,0.74-33.05-0.56c-7.7-0.96-15.24-2.39-22.63-4.14c-7.43-1.77-14.59-3.67-21.9-6.07
						c-14.62-4.66-28.54-10.98-41.79-18.28c-2.86-1.59-5.67-3.25-8.46-4.93l-35.52,28.04c-0.21,0.23-0.35,0.47-0.59,0.69
						c-6.46,5.96-74.03,38.26-78.75,41.49c-4.72,3.23-21.29-7.43-29.56-7.95c-15.9-0.99-25.91-9.77-15.32-8.94
						c0,0,16.31,2.71,24.26-1.63c7.95-4.33,39.25-29.67,48.69-42.59c9.44-12.92,24.34-58.38,24.34-58.38s0.19,0.12,0.51,0.31
						c-0.22-0.22-0.46-0.44-0.68-0.66c-20.41-20.47-38.55-43.02-53.85-67.5c-4.51,12.89-8.42,21.38-11.81,24.05
						C-1.88,277.69,17,284.98,17,284.98l26.33,12.26l-27.66-5.89c-0.95,5.45-2.07,14.03-2.07,24.44c0,0-25.59,33.78-41.98,63.59
						c0,0-14.16-6.96-29.56-3.73c-15.4,3.23-28.32,14.41-28.32,19.87c0,5.46,5.38,7.2,5.38,7.2s0,7.12,6.62,7.29
						c0,0-0.33,7.18,4.97,7.48c0,0-0.99,6.76,5.47,6.1l7.78,7.12c0,0-2.32,6.29,4.31,7.78c0,0-1.99,6.79,3.97,8.78
						c0,0-1.16,7.62,5.63,10.6c0,0-2.4,7.95,7.29,12.92c0,0,13.66,9.94,40,3.73c0,0,32.71,4.89,67.49-12.01
						c34.78-16.89,41.73-21.53,45.71-21.2l48.47-29.13l-48.35,41.4c-1.87,13.74-12.22,65.01-12.22,65.01l217.13,2.21l-135.8-47.03
						L315.43,495.97z"/>
				</g>
			</g>
		</g>
	</g>
</g>
<g id="OBJECTS">
	<g>
		<g>
			<g>
				<g>
					<g>
						<g>
							<path class="st3" d="M223.45,182.83c2.16-2.16,3.37-4.88,3.61-7.54c-2.78,0.24-5.49,1.41-7.61,3.54s-3.3,4.84-3.54,7.61
								C218.57,186.2,221.29,184.99,223.45,182.83z"/>
							<path class="st3" d="M231.58,190.96c2.49-2.49,5.64-3.87,8.75-4.09c-0.15-2.93-1.34-5.81-3.57-8.05
								c-2.24-2.24-5.12-3.42-8.05-3.57c-0.23,3.1-1.6,6.25-4.09,8.75s-5.64,3.87-8.75,4.09c0.15,2.93,1.34,5.81,3.57,8.05
								c2.24,2.24,5.12,3.42,8.05,3.57C227.71,196.6,229.09,193.45,231.58,190.96z"/>
						</g>
						<g>
							<path class="st3" d="M232.75,192.13c2.16-2.16,4.88-3.37,7.54-3.61c-0.24,2.78-1.41,5.49-3.54,7.61s-4.84,3.3-7.61,3.54
								C229.38,197.01,230.59,194.29,232.75,192.13z"/>
						</g>
					</g>
				</g>
				<g>
					<g>
						<g>
							<polygon class="st4" points="101.28,272.29 100.41,269.19 91.83,271.59 92.19,272.87 							"/>
							<g>
								<g>
									<g>
										
											<rect x="89.1" y="265.74" transform="matrix(0.963 -0.2696 0.2696 0.963 -68.4805 35.5536)" class="st4" width="12.22" height="2.72"/>
									</g>
									<polygon class="st4" points="101.45,266.76 100.41,269.19 91.83,271.59 89.69,270.06 									"/>
								</g>
							</g>
						</g>
						<path class="st5" d="M109.5,200.35c-3.78-10.06-10.11-14.99-16.58-17.22c6.4,4.13,13.07,11.87,14.39,24.15
							c1.77,16.33-7.46,26.78-7.46,26.78s9.63-16.08,3.47-33.76c-0.64-1.83-1.38-3.49-2.2-4.98c-5.73-10.45-18.03-15.47-29.52-12.28
							c-11.47,3.23-19.37,13.92-18.85,25.82c0.08,1.71,0.3,3.51,0.7,5.4c3.92,18.3,20.5,27.05,20.5,27.05s-13.31-4.14-20.28-19.01
							c-5.24-11.19-3.56-21.26-0.24-28.11c-4.38,5.26-7.22,12.76-5.23,23.32c5.04,26.73,33.98,30.31,41.59,47.63l4.44-1.24
							l4.44-1.24C96.2,243.89,119.07,225.81,109.5,200.35z M95.63,200.44c0.5-0.14,1.01,0.15,1.15,0.65
							c0.14,0.5-0.15,1.01-0.65,1.15s-1.01-0.15-1.15-0.65C94.85,201.09,95.14,200.58,95.63,200.44z M98.22,209.69
							c0.5-0.14,1.01,0.15,1.15,0.65c0.14,0.5-0.15,1.01-0.65,1.15s-1.01-0.15-1.15-0.65C97.44,210.34,97.73,209.83,98.22,209.69z
							 M90.77,196.81c0.5-0.14,1.01,0.15,1.15,0.65c0.14,0.5-0.15,1.01-0.65,1.15s-1.01-0.15-1.15-0.65
							C89.99,197.46,90.28,196.95,90.77,196.81z M93.36,206.06c0.5-0.14,1.01,0.15,1.15,0.65c0.14,0.5-0.15,1.01-0.65,1.15
							c-0.5,0.14-1.01-0.15-1.15-0.65C92.58,206.71,92.87,206.2,93.36,206.06z M95.95,215.31c0.5-0.14,1.01,0.15,1.15,0.65
							c0.14,0.5-0.15,1.01-0.65,1.15c-0.5,0.14-1.01-0.15-1.15-0.65C95.17,215.97,95.46,215.45,95.95,215.31z M63.2,221.43
							c-0.5,0.14-1.01-0.15-1.15-0.65c-0.14-0.5,0.15-1.01,0.65-1.15c0.5-0.14,1.01,0.15,1.15,0.65
							C63.98,220.78,63.69,221.29,63.2,221.43z M60.61,212.18c-0.5,0.14-1.01-0.15-1.15-0.65s0.15-1.01,0.65-1.15
							c0.5-0.14,1.01,0.15,1.15,0.65S61.1,212.04,60.61,212.18z M68.06,225.06c-0.5,0.14-1.01-0.15-1.15-0.65
							c-0.14-0.5,0.15-1.01,0.65-1.15s1.01,0.15,1.15,0.65C68.84,224.4,68.55,224.92,68.06,225.06z M65.47,215.8
							c-0.5,0.14-1.01-0.15-1.15-0.65c-0.14-0.5,0.15-1.01,0.65-1.15c0.5-0.14,1.01,0.15,1.15,0.65
							C66.25,215.15,65.96,215.67,65.47,215.8z M62.88,206.55c-0.5,0.14-1.01-0.15-1.15-0.65c-0.14-0.5,0.15-1.01,0.65-1.15
							c0.5-0.14,1.01,0.15,1.15,0.65C63.66,205.9,63.37,206.41,62.88,206.55z M78.78,195.18c0.5-0.14,1.01,0.15,1.15,0.65
							c0.14,0.5-0.15,1.01-0.65,1.15c-0.5,0.14-1.01-0.15-1.15-0.65C78,195.83,78.29,195.32,78.78,195.18z M81.37,204.43
							c0.5-0.14,1.01,0.15,1.15,0.65c0.14,0.5-0.15,1.01-0.65,1.15c-0.5,0.14-1.01-0.15-1.15-0.65
							C80.59,205.08,80.88,204.57,81.37,204.43z M83.96,213.68c0.5-0.14,1.01,0.15,1.15,0.65c0.14,0.5-0.15,1.01-0.65,1.15
							c-0.5,0.14-1.01-0.15-1.15-0.65C83.18,214.33,83.47,213.82,83.96,213.68z M86.55,222.93c0.5-0.14,1.01,0.15,1.15,0.65
							c0.14,0.5-0.15,1.01-0.65,1.15c-0.5,0.14-1.01-0.15-1.15-0.65C85.77,223.59,86.06,223.07,86.55,222.93z M73.99,191.54
							c0.47-0.1,0.95,0.18,1.08,0.65c0.13,0.47-0.13,0.95-0.59,1.12c-0.47,0.1-0.95-0.18-1.08-0.65
							C73.27,192.19,73.53,191.71,73.99,191.54z M76.58,200.8c0.47-0.1,0.95,0.18,1.08,0.65c0.13,0.47-0.13,0.95-0.59,1.12
							c-0.47,0.1-0.95-0.18-1.08-0.65S76.12,200.96,76.58,200.8z M79.17,210.05c0.47-0.1,0.95,0.18,1.08,0.65
							c0.13,0.47-0.13,0.95-0.59,1.12c-0.47,0.1-0.95-0.18-1.08-0.65C78.45,210.69,78.71,210.21,79.17,210.05z M81.76,219.3
							c0.47-0.1,0.95,0.18,1.08,0.65c0.13,0.47-0.13,0.95-0.59,1.12c-0.47,0.1-0.95-0.18-1.08-0.65
							C81.04,219.95,81.3,219.46,81.76,219.3z M84.35,228.55c0.47-0.1,0.95,0.18,1.08,0.65s-0.13,0.95-0.59,1.12
							c-0.47,0.1-0.95-0.18-1.08-0.65C83.63,229.2,83.89,228.72,84.35,228.55z M71.78,197.14c0.5-0.14,1.01,0.15,1.15,0.65
							c0.14,0.5-0.15,1.01-0.65,1.15c-0.5,0.14-1.01-0.15-1.15-0.65C70.99,197.79,71.28,197.28,71.78,197.14z M74.37,206.39
							c0.5-0.14,1.01,0.15,1.15,0.65c0.14,0.5-0.15,1.01-0.65,1.15c-0.5,0.14-1.01-0.15-1.15-0.65
							C73.58,207.04,73.87,206.53,74.37,206.39z M76.96,215.64c0.5-0.14,1.01,0.15,1.15,0.65c0.14,0.5-0.15,1.01-0.65,1.15
							c-0.5,0.14-1.01-0.15-1.15-0.65C76.17,216.3,76.46,215.78,76.96,215.64z M79.55,224.9c0.5-0.14,1.01,0.15,1.15,0.65
							c0.14,0.5-0.15,1.01-0.65,1.15c-0.5,0.14-1.01-0.15-1.15-0.65C78.76,225.55,79.05,225.03,79.55,224.9z M66.92,193.51
							c0.5-0.14,1.01,0.15,1.15,0.65c0.14,0.5-0.15,1.01-0.65,1.15c-0.5,0.14-1.01-0.15-1.15-0.65
							C66.13,194.16,66.42,193.65,66.92,193.51z M69.51,202.76c0.5-0.14,1.01,0.15,1.15,0.65c0.14,0.5-0.15,1.01-0.65,1.15
							c-0.5,0.14-1.01-0.15-1.15-0.65C68.72,203.42,69.01,202.9,69.51,202.76z M72.1,212.02c0.5-0.14,1.01,0.15,1.15,0.65
							c0.14,0.5-0.15,1.01-0.65,1.15c-0.5,0.14-1.01-0.15-1.15-0.65C71.31,212.67,71.6,212.15,72.1,212.02z M74.69,221.27
							c0.5-0.14,1.01,0.15,1.15,0.65c0.14,0.5-0.15,1.01-0.65,1.15c-0.5,0.14-1.01-0.15-1.15-0.65
							C73.9,221.92,74.19,221.41,74.69,221.27z M72.92,228.69c-0.5,0.14-1.01-0.15-1.15-0.65c-0.14-0.5,0.15-1.01,0.65-1.15
							c0.5-0.14,1.01,0.15,1.15,0.65C73.7,228.03,73.41,228.55,72.92,228.69z M70.33,219.43c-0.5,0.14-1.01-0.15-1.15-0.65
							c-0.14-0.5,0.15-1.01,0.65-1.15c0.5-0.14,1.01,0.15,1.15,0.65C71.11,218.78,70.82,219.29,70.33,219.43z M67.74,210.18
							c-0.5,0.14-1.01-0.15-1.15-0.65c-0.14-0.5,0.15-1.01,0.65-1.15c0.5-0.14,1.01,0.15,1.15,0.65
							C68.52,209.53,68.23,210.04,67.74,210.18z M65.15,200.93c-0.5,0.14-1.01-0.15-1.15-0.65c-0.14-0.5,0.15-1.01,0.65-1.15
							c0.5-0.14,1.01,0.15,1.15,0.65S65.64,200.79,65.15,200.93z M76.63,231.67c-0.14-0.5,0.15-1.01,0.65-1.15
							c0.5-0.14,1.01,0.15,1.15,0.65c0.14,0.5-0.15,1.01-0.65,1.15C77.28,232.45,76.77,232.16,76.63,231.67z M96.55,246.32
							c-1.26,3.52-2.21,7.52-2.79,10.29c-0.14,0.67-0.62,1.13-1.19,1.31c-0.58,0.14-1.23,0-1.7-0.5c-1.94-2.07-4.82-4.99-7.73-7.35
							c-1.11-0.9-0.73-2.67,0.64-3.06l5.31-1.49l5.31-1.49C95.79,243.66,97.03,244.98,96.55,246.32z M91.92,228.36
							c-0.5,0.14-1.01-0.15-1.15-0.65c-0.14-0.5,0.15-1.01,0.65-1.15c0.5-0.14,1.01,0.15,1.15,0.65
							C92.7,227.7,92.41,228.22,91.92,228.36z M89.33,219.1c-0.5,0.14-1.01-0.15-1.15-0.65c-0.14-0.5,0.15-1.01,0.65-1.15
							c0.5-0.14,1.01,0.15,1.15,0.65S89.82,218.96,89.33,219.1z M86.74,209.85c-0.5,0.14-1.01-0.15-1.15-0.65
							c-0.14-0.5,0.15-1.01,0.65-1.15c0.5-0.14,1.01,0.15,1.15,0.65C87.52,209.2,87.23,209.71,86.74,209.85z M84.15,200.6
							c-0.5,0.14-1.01-0.15-1.15-0.65c-0.14-0.5,0.15-1.01,0.65-1.15c0.5-0.14,1.01,0.15,1.15,0.65
							C84.93,199.95,84.64,200.46,84.15,200.6z M81.56,191.35c-0.5,0.14-1.01-0.15-1.15-0.65s0.15-1.01,0.65-1.15
							c0.5-0.14,1.01,0.15,1.15,0.65C82.34,190.69,82.05,191.21,81.56,191.35z M94.19,222.73c-0.5,0.14-1.01-0.15-1.15-0.65
							c-0.14-0.5,0.15-1.01,0.65-1.15c0.5-0.14,1.01,0.15,1.15,0.65C94.97,222.08,94.68,222.59,94.19,222.73z M91.6,213.48
							c-0.5,0.14-1.01-0.15-1.15-0.65c-0.14-0.5,0.15-1.01,0.65-1.15c0.5-0.14,1.01,0.15,1.15,0.65
							C92.38,212.83,92.09,213.34,91.6,213.48z M89.01,204.23c-0.5,0.14-1.01-0.15-1.15-0.65c-0.14-0.5,0.15-1.01,0.65-1.15
							s1.01,0.15,1.15,0.65C89.79,203.57,89.5,204.09,89.01,204.23z M86.42,194.97c-0.5,0.14-1.01-0.15-1.15-0.65
							c-0.14-0.5,0.15-1.01,0.65-1.15c0.5-0.14,1.01,0.15,1.15,0.65C87.2,194.32,86.91,194.84,86.42,194.97z"/>
					</g>
					<path class="st4" d="M99,277.46c1.26-0.26,2.49-0.34,3.65-0.3l-0.92-3.28l-9.09,0.58l1.36,4.86
						C95.49,278.51,97.2,277.84,99,277.46z"/>
				</g>
			</g>
			<path class="st3" d="M247.53,234.08c-0.72-5.82-1.81-11.55-3.17-17.2c-0.68-2.83-1.43-5.63-2.25-8.42
				c-0.41-1.4-0.84-2.79-1.29-4.18c-0.34-1.04-0.67-2.04-1.04-3.1c-0.93,0.79-1.96,1.5-3.06,2.1c14.56,44.8,6.7,59.51,6.7,59.51
				c4.3-18.64-5.74-50.26-8.59-58.61c-2.35,0.95-4.77,1.35-7.15,1.3c0.37,0.93,0.75,1.95,1.11,2.93c0.46,1.26,0.9,2.53,1.33,3.81
				c0.86,2.56,1.66,5.14,2.38,7.74c1.45,5.2,2.66,10.46,3.51,15.74c1.57,10.43,2.49,21.7-1.67,29.56c-2.04,3.86-5.37,6.57-9.8,7.96
				c-4.4,1.43-9.58,1.61-14.77,1.15c-2.6-0.23-5.23-0.62-7.86-1.14c-2.61-0.52-5.3-1.13-7.83-1.86c-5.11-1.42-10.08-3.45-14.88-5.87
				c-9.6-4.87-18.47-11.39-26.49-18.84c-8.01-7.46-15.26-15.85-21.35-24.97c-1.52-2.28-2.95-4.61-4.27-6.99
				c-1.33-2.41-2.59-4.86-3.74-7.34c-1.15-2.48-2.2-4.99-3.01-7.53c-0.4-1.27-0.73-2.54-0.96-3.79c-0.22-1.24-0.31-2.48-0.16-3.5
				c0.16-1.05,0.52-1.64,1.04-1.9c0.56-0.31,1.74-0.35,2.91-0.13c2.41,0.44,4.94,1.52,7.37,2.71c4.87,2.44,9.58,5.48,14.03,8.7
				l1.78-2.3c-4.5-3.51-9.12-6.75-14.19-9.53c-2.55-1.36-5.16-2.65-8.26-3.35c-0.78-0.16-1.6-0.28-2.49-0.28
				c-0.88,0-1.87,0.12-2.86,0.57c-1.01,0.45-1.86,1.24-2.42,2.13c-0.56,0.89-0.85,1.82-1.02,2.69c-0.31,1.75-0.2,3.34,0,4.87
				c0.21,1.52,0.54,2.98,0.93,4.4c0.79,2.84,1.81,5.55,2.92,8.19c1.11,2.65,2.33,5.23,3.61,7.78c1.3,2.58,2.71,5.08,4.21,7.52
				c6.01,9.76,13.19,18.73,21.29,26.85c8.11,8.11,17.2,15.36,27.4,21.03c5.11,2.81,10.47,5.25,16.11,7.05
				c2.82,0.93,5.58,1.66,8.45,2.34c2.85,0.68,5.75,1.23,8.72,1.6c5.92,0.72,12.19,0.88,18.57-0.89c3.17-0.89,6.35-2.32,9.14-4.44
				c2.8-2.09,5.19-4.79,6.88-7.75c1.73-2.96,2.87-6.1,3.63-9.22c0.76-3.13,1.14-6.24,1.31-9.31
				C248.59,245.78,248.25,239.92,247.53,234.08z"/>
			<g>
				<g>
					<path class="st4" d="M150.76,189.56c-1.05,2.87,3.35,0.29,3.35,0.29s5.46,4.09,2.01,12.68l-3.77,7.76l1.51-7.92
						c-5.29-0.2-18.31,0.46-21.5,11.53c-0.34,1.17-0.67,2.3-0.99,3.41c0.12,0.19,0.24,0.38,0.36,0.57c0.99,1.49,2.03,2.95,3.08,4.4
						c0.89-2.76,1.81-5.83,2.48-8.62c1.82-7.47,11.69-7.62,11.69-7.62c-6.5,2.2-7.62,4.49-10.46,11.38
						c-0.89,2.15-1.86,4.25-2.79,6.12c5.18,6.95,11.02,13.43,17.34,19.32c8.02,7.45,16.89,13.97,26.49,18.84
						c4.8,2.42,9.77,4.45,14.88,5.87c2.53,0.73,5.22,1.34,7.83,1.86c2.63,0.52,5.25,0.92,7.86,1.14c4.16,0.37,8.31,0.31,12.07-0.46
						c-0.96-2.33-1.37-6.45-1.48-10.83c0.8-4.78,1.33-10.96,0.6-17.53v0c-0.23-2.06-0.59-4.16-1.1-6.26
						c-0.35-1.46-0.9-2.92-1.58-4.37c-2.28-1.94-10.37-8.68-13.81-9.75c-4.02-1.25-13.89,3.9-13.89,3.9s7.15-5.85,12.64-6.36
						c3.04-0.28,7.89,3.28,11.6,6.51c-9.32-12.73-27.15-23.08-27.15-23.08s-7.98,4.79-15.07,6.45c6.26-3.26,13.49-7.9,14.14-8.97
						c0.65-1.07,0.45-6.75,0.88-7.33c0.43-0.57,0.39-1.28,0.39-1.47c0-0.19-0.43-0.67-0.48-0.81c-0.05-0.14,0.74-0.84,0.89-1.23
						c0.14-0.38-0.38-1.63-0.38-1.63s3.21-1.15,3.4-2.27c-2.06-3.05-2.59-9.37-2.59-9.37s2.14-1.66,2.14-5.68
						c0,0,5.28,0.1,6.99-4.69c2.14-5.97-2.3-9.39-2.3-9.39s0.48,3.83-2.01,4.41c-2.49,0.57-5.56-12.55-21.84-13.51
						c-16.28-0.96-23.37,7.18-21.93,12.64c0,0-7.76,4.31-5.08,11.21C147.89,177.59,151.82,186.69,150.76,189.56z M187.8,247.6
						c1.79-4.85,2.3-13.28,2.3-13.28c3.35,11.01-5.62,22.22-4.34,23.12c1.28,0.89,13.67,8.17,13.67,8.17
						c-9.2-2.3-16.99-6.9-16.92-8.14C182.56,256.22,186.01,252.46,187.8,247.6z M168.96,197.35c3.51,1.53,13.54,2.36,13.54,2.36
						s-7.92,0.06-12.1-0.51c-4.18-0.57-8.65-8.81-8.65-8.81S165.45,195.82,168.96,197.35z"/>
					<path class="st4" d="M222.22,270.11c4.95-1.19,7.3-4.17,9.36-7.3c-6.31,5.53-11.65,1.78-11.65,1.78l-3.08,5.07l0.82,0.82
						C219.39,270.25,220.64,270.49,222.22,270.11z"/>
					<path class="st4" d="M133.32,214.3c0,0-4.11-3.18-8.07-7.67c0.72,1.42,1.46,2.84,2.23,4.24c1.31,2.38,2.75,4.71,4.27,6.99
						c0.15,0.22,0.31,0.44,0.46,0.67C134.01,219.44,133.32,214.3,133.32,214.3z"/>
				</g>
			</g>
			<g>
				<path class="st5" d="M159.52,282.09l12.04-7.18c-7.3-4.47-14.01-9.75-20.18-15.55c-1.29,0.18-2.73,0.32-2.73,0.32
					s3.64,9.58,7.38,15.42C157.9,278.02,159.1,280.28,159.52,282.09z"/>
				<path class="st5" d="M242.72,325.51l-48.02-16.47l41,5.11l-41.51-15.58l38.44,4.07l-34.61-11.73l30.91,1.53l-7.39-4.01
					c-4.36,0.5-8.64,0.29-12.74-0.22c-2.97-0.37-5.88-0.92-8.72-1.6c-2.87-0.68-5.63-1.41-8.45-2.34
					c-5.64-1.8-11.01-4.23-16.11-7.05c-1.1-0.61-2.19-1.25-3.26-1.9l-13.69,10.81c-0.08,0.09-0.14,0.18-0.23,0.27
					c-2.49,2.3-28.54,14.75-30.36,16c-1.82,1.25-8.21-2.87-11.4-3.07c-6.13-0.38-9.99-3.77-5.91-3.45c0,0,6.29,1.04,9.35-0.63
					c3.06-1.67,15.13-11.44,18.77-16.42c3.64-4.98,9.39-22.51,9.39-22.51s0.07,0.05,0.19,0.12c-0.09-0.09-0.18-0.17-0.26-0.25
					c-7.87-7.89-14.86-16.59-20.76-26.03c-1.74,4.97-3.25,8.24-4.55,9.27c-2.43,1.92,4.85,4.73,4.85,4.73l10.15,4.73l-10.66-2.27
					c-0.37,2.1-0.8,5.41-0.8,9.42c0,0-9.87,13.03-16.19,24.52c0,0-5.46-2.68-11.4-1.44c-5.94,1.25-10.92,5.56-10.92,7.66
					c0,2.11,2.08,2.78,2.08,2.78s0,2.75,2.55,2.81c0,0-0.13,2.77,1.92,2.88c0,0-0.38,2.61,2.11,2.35l3,2.75c0,0-0.89,2.43,1.66,3
					c0,0-0.77,2.62,1.53,3.38c0,0-0.45,2.94,2.17,4.09c0,0-0.93,3.07,2.81,4.98c0,0,5.27,3.83,15.42,1.44c0,0,12.61,1.88,26.02-4.63
					c13.41-6.51,16.09-8.3,17.62-8.17l18.69-11.23l-18.64,15.96c-0.72,5.3-2.47,13.15-2.47,13.15l81.48,12.77l-52.36-18.13
					L242.72,325.51z"/>
			</g>
		</g>
		<g>
			<g>
				<g>
					<g>
						<g>
							<text transform="matrix(1 0 0 1 263.14 237.1729)" class="st3 st6 st7">PADEL</text>
							<text transform="matrix(1 0 0 1 263.14 285.0166)" class="st4 st6 st7">SEARCH</text>
							<g>
								<text transform="matrix(1 0 0 1 250.9393 308.5684)" class="st5 st8 st9 st10">ELEGÍ TU PARTIDO</text>
							</g>
						</g>
					</g>
				</g>
			</g>
		</g>
	</g>
</g>
</svg>
